<svg xmlns="http://www.w3.org/2000/svg" width="157" height="23" viewBox="0 0 157 23">
  <g fill="none" fill-rule="evenodd">
    <path fill="#FFF" d="M32.7274977 17.6272L34.7368028 17.6272C38.3337981 17.6272 41.0378099 16.2081 41.0378099 12.0539167 41.0378099 8.46745 38.2844131 6.79036667 35.0098944 6.79036667L32.7274977 6.79036667 32.7274977 17.6272 32.7274977 17.6272zM28.8577793 3.07471667L34.6623568 3.07471667C40.3184108 3.07471667 45.0564202 5.5775 45.0564202 12.2605333 45.0564202 18.1692333 40.4175493 21.34285 35.1834789 21.34285L28.8577793 21.34285 28.8577793 3.07471667 28.8577793 3.07471667zM47.066831 8.80286667L50.7876573 8.80286667 50.7876573 10.8153667 50.8374108 10.8153667C51.6312559 9.29315 52.6727629 8.49313333 54.3102066 8.49313333 54.7318216 8.49313333 55.2031901 8.5192 55.5503592 8.62231667L55.5503592 12.1570333C55.0296056 12.0021667 54.5084836 11.8994333 53.9630376 11.8994333 51.1348263 11.8994333 50.7876573 13.6022 50.7876573 16.1046L50.7876573 21.34285 47.066831 21.34285 47.066831 8.80286667M65.0296948 13.6535667C65.0543873 12.36365 64.0869577 11.2799667 62.7472981 11.2799667 61.110223 11.2799667 60.2172394 12.4407 60.1177324 13.6535667L65.0296948 13.6535667 65.0296948 13.6535667zM68.1800141 19.1754833C66.9892465 20.74945 65.0296948 21.6525833 63.0948357 21.6525833 59.3736408 21.6525833 56.3969061 19.0723667 56.3969061 15.07305 56.3969061 11.07335 59.3736408 8.49313333 63.0948357 8.49313333 66.5676315 8.49313333 68.7505211 11.07335 68.7505211 15.07305L68.7505211 16.2855333 60.1177324 16.2855333C60.4155164 17.756 61.4820845 18.7108833 62.9212512 18.7108833 64.1367113 18.7108833 64.9552488 18.0657333 65.5755094 17.1886667L68.1800141 19.1754833 68.1800141 19.1754833zM77.2200446 15.847C76.0790305 15.847 73.5489718 15.9501167 73.5489718 17.6528833 73.5489718 18.5820833 74.4913404 19.0206167 75.3102465 19.0206167 76.7737371 19.0206167 78.1380892 18.2206 78.1380892 16.6727L78.1380892 15.847 77.2200446 15.847 77.2200446 15.847zM78.1380892 19.7685L78.0883357 19.7685C77.2697981 21.11055 75.7812465 21.6525833 74.2683709 21.6525833 72.0106667 21.6525833 69.976669 20.3105333 69.976669 17.7820667 69.976669 13.4473333 75.0371549 13.3699 78.1380892 13.3699 78.1380892 12.0021667 77.0464601 11.1251 75.756554 11.1251 74.5410939 11.1251 73.5239108 11.6924333 72.7300657 12.6216333L70.7454531 10.5060167C72.1098052 9.16396667 74.0944178 8.49313333 76.054338 8.49313333 80.3954249 8.49313333 81.5615 10.7896833 81.5615 14.96955L81.5615 21.34285 78.1380892 21.34285 78.1380892 19.7685 78.1380892 19.7685zM83.8932817 8.80286667L87.4659531 8.80286667 87.4659531 10.5060167 87.515338 10.5060167C88.0117676 9.52545 89.2272277 8.49313333 91.0378873 8.49313333 92.7250845 8.49313333 94.1137606 9.21571667 94.7590822 10.7379333 95.6273732 9.13828333 96.7930798 8.49313333 98.5794155 8.49313333 101.853566 8.49313333 102.846056 10.8928 102.846056 13.9376167L102.846056 21.34285 99.1248615 21.34285 99.1248615 14.0407333C99.1248615 12.8796167 98.7032465 11.8994333 97.4877864 11.8994333 95.7758967 11.8994333 95.2304507 13.1632833 95.2304507 14.7115667L95.2304507 21.34285 91.5092559 21.34285 91.5092559 14.7115667C91.5092559 13.78275 91.5590094 11.8994333 89.8471197 11.8994333 87.9122606 11.8994333 87.6148451 13.4730167 87.6148451 15.0987333L87.6148451 21.34285 83.8932817 21.34285 83.8932817 8.80286667"/>
    <polyline fill="#FFF" points="105.203 3.075 109.073 3.075 109.073 9.887 116.59 9.887 116.59 3.075 120.46 3.075 120.46 21.343 116.59 21.343 116.59 13.447 109.073 13.447 109.073 21.343 105.203 21.343 105.203 3.075"/>
    <path fill="#FFF" d="M128.820343 18.2462833C130.680756 18.2462833 131.797077 16.9563667 131.797077 15.07305 131.797077 13.18935 130.680756 11.8994333 128.820343 11.8994333 126.959561 11.8994333 125.843608 13.18935 125.843608 15.07305 125.843608 16.9563667 126.959561 18.2462833 128.820343 18.2462833L128.820343 18.2462833zM128.820343 8.49313333C132.541169 8.49313333 135.518272 11.07335 135.518272 15.07305 135.518272 19.0723667 132.541169 21.6525833 128.820343 21.6525833 125.099148 21.6525833 122.122413 19.0723667 122.122413 15.07305 122.122413 11.07335 125.099148 8.49313333 128.820343 8.49313333L128.820343 8.49313333zM144.051923 12.4928333C143.506108 11.7959333 142.786709 11.4348333 141.893725 11.4348333 141.273465 11.4348333 140.529373 11.7185 140.529373 12.4667667 140.529373 14.3247833 146.805319 12.7504333 146.805319 17.5240833 146.805319 20.7237667 143.828585 21.6525833 141.248772 21.6525833 139.561944 21.6525833 137.701162 21.2136667 136.510394 19.9494333L138.768099 17.34315C139.462437 18.2206 140.281343 18.7108833 141.397664 18.7108833 142.240894 18.7108833 143.084493 18.4785833 143.084493 17.80775 143.084493 15.79525 136.808178 17.4984 136.808178 12.72475 136.808178 9.78343333 139.338606 8.49313333 141.869033 8.49313333 143.456354 8.49313333 145.217998 8.90598333 146.333951 10.1445333L144.051923 12.4928333M156.775925 11.8994333L153.501406 11.8994333 153.501406 16.0789167C153.501406 17.4209667 153.650298 18.40115 155.262681 18.40115 155.659603 18.40115 156.453448 18.3497833 156.775925 18.04005L156.775925 21.2654167C155.957019 21.5747667 155.039343 21.6525833 154.171052 21.6525833 151.690378 21.6525833 149.780211 20.5945833 149.780211 17.8595L149.780211 11.8994333 147.399045 11.8994333 147.399045 8.80286667 149.780211 8.80286667 149.780211 5.08721667 153.501406 5.08721667 153.501406 8.80286667 156.775925 8.80286667 156.775925 11.8994333M22.2125516 17.1564667C20.4162653 18.1991333 18.3306714 18.7775833 16.113507 18.7304333 9.57736854 18.5932 4.38457512 13.0839333 4.51282864 6.42773333 4.55889671 4.16683333 5.2082723 2.06923333 6.3072723.28405 2.80757277 2.3161.416455399 6.11646667.329478873 10.5152167.200119718 17.1721833 5.39733568 22.68145 11.9345798 22.8186833 16.2513427 22.9099167 20.0775728 20.6336833 22.2125516 17.1564667"/>
    <path fill="#418BAC" d="M15.9933615,17.2990667 C16.0659648,17.3006 16.1385681,17.30175 16.2115399,17.30175 C17.9171643,17.30175 19.5995704,16.8616833 21.095493,16.0356 C21.9770516,14.4631667 22.4904343,12.6392667 22.4904343,10.6858 C22.4904343,4.81696667 17.9296948,0.05865 12.3016502,0.05865 C10.5274765,0.05865 8.85981221,0.533216667 7.40737793,1.36543333 C6.46980047,2.93518333 5.95236385,4.7403 5.9147723,6.59486667 C5.80347183,12.3770667 10.324777,17.1794667 15.9933615,17.2990667"/>
  </g>
</svg>
